<svg>
    <symbol id="home" viewBox="0 0 16 16" xmlns="http://www.w3.org/2000/svg"  fill="black">
        <path d="M8.707 1.5a1 1 0 0 0-1.414 0L.646 8.146a.5.5 0 0 0 .708.708L8 2.207l6.646 6.647a.5.5 0 0 0 .708-.708L13 5.793V2.5a.5.5 0 0 0-.5-.5h-1a.5.5 0 0 0-.5.5v1.293z"/>
  <path d="m8 3.293 6 6V13.5a1.5 1.5 0 0 1-1.5 1.5h-9A1.5 1.5 0 0 1 2 13.5V9.293z"/>
    </symbol>
     <symbol id="search" viewBox="0 0 16 16" xmlns="http://www.w3.org/2000/svg"  fill="black" >
        <path d="M11.742 10.344a6.5 6.5 0 1 0-1.397 1.398h-.001q.044.06.098.115l3.85 3.85a1 1 0 0 0 1.415-1.414l-3.85-3.85a1 1 0 0 0-.115-.1zM12 6.5a5.5 5.5 0 1 1-11 0 5.5 5.5 0 0 1 11 0"/>
    </symbol>
     <symbol id="cart" xmlns="http://www.w3.org/2000/svg"  fill="black"  viewBox="0 0 16 16">
          <path d="M8 1a2.5 2.5 0 0 1 2.5 2.5V4h-5v-.5A2.5 2.5 0 0 1 8 1m3.5 3v-.5a3.5 3.5 0 1 0-7 0V4H1v10a2 2 0 0 0 2 2h10a2 2 0 0 0 2-2V4z"/>

    </symbol>
    <symbol id="user" viewBox="0 0 16 16" xmlns="http://www.w3.org/2000/svg"  fill="black" >
        <path d="M3 14s-1 0-1-1 1-4 6-4 6 3 6 4-1 1-1 1zm5-6a3 3 0 1 0 0-6 3 3 0 0 0 0 6"/>
    </symbol>
</svg>